<mxfile host="app.diagrams.net" modified="2024-01-10T19:31:28.965Z" agent="Mozilla/5.0 (X11; Linux x86_64) AppleWebKit/537.36 (KHTML, like Gecko) Chrome/120.0.0.0 Safari/537.36" etag="Xq_2COe4jcDH6S7uXL5I" version="22.1.18" type="device">
  <diagram name="Page-1" id="4l1MvAPVieFQY0I1b8AU">
    <mxGraphModel dx="1434" dy="1898" grid="1" gridSize="10" guides="1" tooltips="1" connect="1" arrows="1" fold="1" page="1" pageScale="1" pageWidth="850" pageHeight="1100" math="0" shadow="0">
      <root>
        <mxCell id="0" />
        <mxCell id="1" parent="0" />
        <mxCell id="FurcTd-vAGufSTmolYZH-2" value="" style="rounded=0;whiteSpace=wrap;html=1;" vertex="1" parent="1">
          <mxGeometry x="100" y="-40" width="600" height="400" as="geometry" />
        </mxCell>
        <mxCell id="ShHt4iyLzxTSK044AMGl-10" value="Organization 2" style="rounded=1;whiteSpace=wrap;html=1;fillColor=none;dashed=1;align=left;verticalAlign=top;spacing=2;spacingLeft=7;" parent="1" vertex="1">
          <mxGeometry x="460" y="170" width="145" height="90" as="geometry" />
        </mxCell>
        <mxCell id="ShHt4iyLzxTSK044AMGl-9" value="Organization 1" style="rounded=1;whiteSpace=wrap;html=1;fillColor=none;dashed=1;align=left;verticalAlign=top;spacing=2;spacingLeft=7;" parent="1" vertex="1">
          <mxGeometry x="130" y="-10" width="550" height="170" as="geometry" />
        </mxCell>
        <mxCell id="ShHt4iyLzxTSK044AMGl-16" style="edgeStyle=orthogonalEdgeStyle;rounded=0;orthogonalLoop=1;jettySize=auto;html=1;exitX=0.88;exitY=0.25;exitDx=0;exitDy=0;exitPerimeter=0;entryX=0.5;entryY=1;entryDx=0;entryDy=0;" parent="1" source="ShHt4iyLzxTSK044AMGl-1" target="ShHt4iyLzxTSK044AMGl-6" edge="1">
          <mxGeometry relative="1" as="geometry">
            <mxPoint x="400" y="280" as="targetPoint" />
            <Array as="points">
              <mxPoint x="525" y="280" />
            </Array>
          </mxGeometry>
        </mxCell>
        <mxCell id="ShHt4iyLzxTSK044AMGl-17" value="6: Block &lt;i&gt;(to be validated and commited)&lt;/i&gt;" style="edgeStyle=orthogonalEdgeStyle;rounded=0;orthogonalLoop=1;jettySize=auto;html=1;exitX=0.88;exitY=0.25;exitDx=0;exitDy=0;exitPerimeter=0;entryX=0.25;entryY=1;entryDx=0;entryDy=0;" parent="1" source="ShHt4iyLzxTSK044AMGl-1" target="ShHt4iyLzxTSK044AMGl-5" edge="1">
          <mxGeometry x="-0.2014" y="-21" relative="1" as="geometry">
            <mxPoint x="-16" y="20" as="offset" />
          </mxGeometry>
        </mxCell>
        <mxCell id="ShHt4iyLzxTSK044AMGl-18" style="edgeStyle=orthogonalEdgeStyle;rounded=0;orthogonalLoop=1;jettySize=auto;html=1;exitX=0.88;exitY=0.25;exitDx=0;exitDy=0;exitPerimeter=0;entryX=0.25;entryY=1;entryDx=0;entryDy=0;" parent="1" source="ShHt4iyLzxTSK044AMGl-1" target="ShHt4iyLzxTSK044AMGl-4" edge="1">
          <mxGeometry relative="1" as="geometry" />
        </mxCell>
        <mxCell id="ShHt4iyLzxTSK044AMGl-1" value="Ordering Service" style="ellipse;shape=cloud;whiteSpace=wrap;html=1;" parent="1" vertex="1">
          <mxGeometry x="200" y="260" width="150" height="80" as="geometry" />
        </mxCell>
        <mxCell id="ShHt4iyLzxTSK044AMGl-8" value="1: Transaction Proposal" style="edgeStyle=orthogonalEdgeStyle;rounded=0;orthogonalLoop=1;jettySize=auto;html=1;exitX=1;exitY=0.5;exitDx=0;exitDy=0;entryX=0;entryY=0.5;entryDx=0;entryDy=0;" parent="1" source="ShHt4iyLzxTSK044AMGl-3" target="ShHt4iyLzxTSK044AMGl-4" edge="1">
          <mxGeometry y="9" relative="1" as="geometry">
            <mxPoint as="offset" />
          </mxGeometry>
        </mxCell>
        <mxCell id="ShHt4iyLzxTSK044AMGl-3" value="Client" style="rounded=0;whiteSpace=wrap;html=1;" parent="1" vertex="1">
          <mxGeometry x="140" y="19" width="60" height="40" as="geometry" />
        </mxCell>
        <mxCell id="ShHt4iyLzxTSK044AMGl-14" value="2" style="edgeStyle=orthogonalEdgeStyle;rounded=0;orthogonalLoop=1;jettySize=auto;html=1;exitX=1;exitY=0.25;exitDx=0;exitDy=0;entryX=0;entryY=0.25;entryDx=0;entryDy=0;" parent="1" source="ShHt4iyLzxTSK044AMGl-4" target="ShHt4iyLzxTSK044AMGl-11" edge="1">
          <mxGeometry relative="1" as="geometry" />
        </mxCell>
        <mxCell id="ShHt4iyLzxTSK044AMGl-19" value="4: R/W set" style="edgeStyle=orthogonalEdgeStyle;rounded=0;orthogonalLoop=1;jettySize=auto;html=1;exitX=0;exitY=0.75;exitDx=0;exitDy=0;entryX=1;entryY=0.75;entryDx=0;entryDy=0;" parent="1" source="ShHt4iyLzxTSK044AMGl-4" target="ShHt4iyLzxTSK044AMGl-3" edge="1">
          <mxGeometry y="11" relative="1" as="geometry">
            <mxPoint as="offset" />
          </mxGeometry>
        </mxCell>
        <mxCell id="ShHt4iyLzxTSK044AMGl-4" value="Peer 1&lt;br&gt;&lt;i&gt;(endorsing peer)&lt;/i&gt;" style="rounded=0;whiteSpace=wrap;html=1;" parent="1" vertex="1">
          <mxGeometry x="380" y="19" width="100" height="40" as="geometry" />
        </mxCell>
        <mxCell id="ShHt4iyLzxTSK044AMGl-5" value="Peer 2" style="rounded=0;whiteSpace=wrap;html=1;" parent="1" vertex="1">
          <mxGeometry x="420" y="70" width="100" height="40" as="geometry" />
        </mxCell>
        <mxCell id="ShHt4iyLzxTSK044AMGl-6" value="Peer 3" style="rounded=0;whiteSpace=wrap;html=1;" parent="1" vertex="1">
          <mxGeometry x="475" y="200" width="100" height="40" as="geometry" />
        </mxCell>
        <mxCell id="ShHt4iyLzxTSK044AMGl-7" value="5: Transaction Envelope" style="rounded=0;orthogonalLoop=1;jettySize=auto;html=1;exitX=0.5;exitY=1;exitDx=0;exitDy=0;entryX=0.07;entryY=0.4;entryDx=0;entryDy=0;entryPerimeter=0;edgeStyle=orthogonalEdgeStyle;" parent="1" source="ShHt4iyLzxTSK044AMGl-3" target="ShHt4iyLzxTSK044AMGl-1" edge="1">
          <mxGeometry relative="1" as="geometry">
            <Array as="points">
              <mxPoint x="170" y="292" />
            </Array>
          </mxGeometry>
        </mxCell>
        <mxCell id="ShHt4iyLzxTSK044AMGl-15" value="3" style="edgeStyle=orthogonalEdgeStyle;rounded=0;orthogonalLoop=1;jettySize=auto;html=1;exitX=0;exitY=0.75;exitDx=0;exitDy=0;entryX=1;entryY=0.75;entryDx=0;entryDy=0;" parent="1" source="ShHt4iyLzxTSK044AMGl-11" target="ShHt4iyLzxTSK044AMGl-4" edge="1">
          <mxGeometry relative="1" as="geometry" />
        </mxCell>
        <mxCell id="ShHt4iyLzxTSK044AMGl-11" value="Contract" style="rounded=0;whiteSpace=wrap;html=1;" parent="1" vertex="1">
          <mxGeometry x="535" y="20" width="80" height="38" as="geometry" />
        </mxCell>
        <mxCell id="IE-lPu8fSHNhzgsrynUs-22" value="" style="group" parent="1" vertex="1" connectable="0">
          <mxGeometry x="250" y="-190" width="440" height="130" as="geometry" />
        </mxCell>
        <mxCell id="FurcTd-vAGufSTmolYZH-1" value="" style="rounded=0;whiteSpace=wrap;html=1;" vertex="1" parent="IE-lPu8fSHNhzgsrynUs-22">
          <mxGeometry x="-20" y="-20" width="460" height="150" as="geometry" />
        </mxCell>
        <mxCell id="IE-lPu8fSHNhzgsrynUs-2" value="Peer" style="rounded=0;whiteSpace=wrap;html=1;verticalAlign=top;align=left;spacingLeft=6;fontSize=15;" parent="IE-lPu8fSHNhzgsrynUs-22" vertex="1">
          <mxGeometry width="175" height="110" as="geometry" />
        </mxCell>
        <mxCell id="IE-lPu8fSHNhzgsrynUs-5" value="WS" style="shape=cylinder3;whiteSpace=wrap;html=1;boundedLbl=1;backgroundOutline=1;size=15;" parent="IE-lPu8fSHNhzgsrynUs-22" vertex="1">
          <mxGeometry x="125" y="6" width="40" height="50" as="geometry" />
        </mxCell>
        <mxCell id="IE-lPu8fSHNhzgsrynUs-6" value="B1" style="rounded=0;whiteSpace=wrap;html=1;" parent="IE-lPu8fSHNhzgsrynUs-22" vertex="1">
          <mxGeometry x="20" y="60" width="30" height="30" as="geometry" />
        </mxCell>
        <mxCell id="IE-lPu8fSHNhzgsrynUs-7" style="edgeStyle=orthogonalEdgeStyle;rounded=0;orthogonalLoop=1;jettySize=auto;html=1;exitX=0;exitY=0.5;exitDx=0;exitDy=0;entryX=1;entryY=0.5;entryDx=0;entryDy=0;" parent="IE-lPu8fSHNhzgsrynUs-22" source="IE-lPu8fSHNhzgsrynUs-8" target="IE-lPu8fSHNhzgsrynUs-6" edge="1">
          <mxGeometry relative="1" as="geometry" />
        </mxCell>
        <mxCell id="IE-lPu8fSHNhzgsrynUs-8" value="B2" style="rounded=0;whiteSpace=wrap;html=1;" parent="IE-lPu8fSHNhzgsrynUs-22" vertex="1">
          <mxGeometry x="65" y="60" width="30" height="30" as="geometry" />
        </mxCell>
        <mxCell id="IE-lPu8fSHNhzgsrynUs-19" style="edgeStyle=orthogonalEdgeStyle;rounded=0;orthogonalLoop=1;jettySize=auto;html=1;exitX=0;exitY=0.75;exitDx=0;exitDy=0;entryX=1;entryY=0.75;entryDx=0;entryDy=0;" parent="IE-lPu8fSHNhzgsrynUs-22" source="IE-lPu8fSHNhzgsrynUs-16" target="IE-lPu8fSHNhzgsrynUs-2" edge="1">
          <mxGeometry relative="1" as="geometry" />
        </mxCell>
        <mxCell id="IE-lPu8fSHNhzgsrynUs-16" value="Installed Contract &lt;br&gt;&lt;i&gt;(in Docker Container)&lt;/i&gt;" style="rounded=0;whiteSpace=wrap;html=1;align=center;" parent="IE-lPu8fSHNhzgsrynUs-22" vertex="1">
          <mxGeometry x="225" width="195" height="110" as="geometry" />
        </mxCell>
        <mxCell id="IE-lPu8fSHNhzgsrynUs-17" style="edgeStyle=orthogonalEdgeStyle;rounded=0;orthogonalLoop=1;jettySize=auto;html=1;exitX=1;exitY=0.25;exitDx=0;exitDy=0;entryX=0;entryY=0.25;entryDx=0;entryDy=0;" parent="IE-lPu8fSHNhzgsrynUs-22" source="IE-lPu8fSHNhzgsrynUs-2" target="IE-lPu8fSHNhzgsrynUs-16" edge="1">
          <mxGeometry relative="1" as="geometry" />
        </mxCell>
        <mxCell id="IE-lPu8fSHNhzgsrynUs-21" style="edgeStyle=orthogonalEdgeStyle;rounded=0;orthogonalLoop=1;jettySize=auto;html=1;exitX=0;exitY=0.5;exitDx=0;exitDy=0;entryX=1;entryY=0.5;entryDx=0;entryDy=0;" parent="IE-lPu8fSHNhzgsrynUs-22" source="IE-lPu8fSHNhzgsrynUs-20" target="IE-lPu8fSHNhzgsrynUs-8" edge="1">
          <mxGeometry relative="1" as="geometry" />
        </mxCell>
        <mxCell id="IE-lPu8fSHNhzgsrynUs-20" value="&lt;b&gt;&lt;font style=&quot;font-size: 14px;&quot;&gt;...&lt;/font&gt;&lt;/b&gt;" style="text;html=1;strokeColor=none;fillColor=none;align=center;verticalAlign=middle;whiteSpace=wrap;rounded=0;" parent="IE-lPu8fSHNhzgsrynUs-22" vertex="1">
          <mxGeometry x="120" y="60" width="20" height="30" as="geometry" />
        </mxCell>
        <mxCell id="IE-lPu8fSHNhzgsrynUs-26" value="Fabric API" style="text;html=1;strokeColor=none;fillColor=none;align=center;verticalAlign=middle;whiteSpace=wrap;rounded=0;rotation=-90;" parent="IE-lPu8fSHNhzgsrynUs-22" vertex="1">
          <mxGeometry x="210" y="40" width="60" height="30" as="geometry" />
        </mxCell>
        <mxCell id="IE-lPu8fSHNhzgsrynUs-27" value="" style="rounded=0;whiteSpace=wrap;html=1;rotation=-90;fillColor=none;" parent="IE-lPu8fSHNhzgsrynUs-22" vertex="1">
          <mxGeometry x="186.25" y="39.75" width="107.5" height="30" as="geometry" />
        </mxCell>
      </root>
    </mxGraphModel>
  </diagram>
</mxfile>
